<?xml version="1.0" standalone="no"?>
<!DOCTYPE svg PUBLIC "-//W3C//DTD SVG 20010904//EN"
 "http://www.w3.org/TR/2001/REC-SVG-20010904/DTD/svg10.dtd">
<svg version="1.0" xmlns="http://www.w3.org/2000/svg"
 width="300.000000pt" height="299.000000pt" viewBox="0 0 300.000000 299.000000"
 preserveAspectRatio="xMidYMid meet">
<metadata>
Created by potrace 1.10, written by Peter Selinger 2001-2011
</metadata>
<g transform="translate(0.000000,299.000000) scale(0.100000,-0.100000)"
fill="#000000" stroke="none">
<path d="M1695 2796 c-91 -29 -182 -96 -226 -165 -15 -23 -15 -23 -62 -7 -61
21 -140 20 -203 -1 -69 -23 -158 -113 -177 -179 -13 -46 -16 -49 -56 -56 -63
-11 -140 -58 -183 -111 -99 -126 -85 -301 34 -418 85 -83 48 -79 709 -79 l585
0 52 26 c145 72 159 272 25 364 -24 16 -32 28 -27 39 37 84 46 130 42 216 -3
70 -10 103 -30 147 -48 104 -148 190 -257 222 -65 19 -170 20 -226 2z m210
-21 c111 -29 204 -108 254 -214 22 -49 26 -69 26 -157 0 -93 -2 -105 -31 -162
l-32 -60 28 -12 c35 -15 86 -67 99 -103 15 -39 14 -111 -3 -150 -17 -43 -76
-93 -123 -106 -53 -15 -1134 -15 -1187 0 -54 15 -138 97 -166 162 -16 36 -23
72 -23 117 0 73 18 123 63 180 36 46 138 100 187 100 18 0 35 6 37 13 25 88
35 106 82 154 40 40 64 55 109 68 69 21 137 16 193 -12 l41 -20 35 51 c93 134
251 192 411 151z"/>
<path d="M1016 1693 l-128 -66 31 -19 c17 -11 31 -22 31 -25 0 -4 -150 -243
-176 -282 -2 -2 -16 6 -32 18 -16 11 -32 18 -36 14 -9 -9 -8 -293 2 -293 12 0
262 123 262 130 0 3 -13 14 -30 23 l-29 18 44 69 c25 39 65 102 90 140 25 39
48 70 53 70 4 0 18 -7 30 -16 13 -9 25 -14 27 -13 1 2 6 70 10 152 6 121 5
147 -6 147 -8 -1 -72 -30 -143 -67z m126 -75 c-2 -62 -6 -115 -8 -117 -1 -1
-13 4 -25 12 -21 15 -24 12 -125 -144 -57 -89 -104 -162 -104 -164 0 -3 12
-11 27 -19 l27 -14 -102 -51 c-56 -28 -104 -51 -107 -51 -4 0 -5 52 -4 115 2
63 5 115 6 115 2 0 14 -7 27 -15 19 -12 25 -13 33 -3 17 22 193 299 193 305 0
2 -10 13 -22 23 -22 18 -22 18 77 68 55 28 103 51 106 51 3 1 3 -50 1 -111z"/>
<path d="M1842 1616 c2 -80 7 -148 10 -152 4 -3 18 2 33 12 15 10 29 13 34 8
5 -5 47 -69 94 -141 l86 -132 -30 -18 c-16 -9 -29 -20 -29 -23 0 -3 61 -36
135 -73 l135 -67 -1 113 c0 61 -4 131 -7 154 l-7 43 -30 -20 -29 -19 -88 135
c-48 74 -88 139 -88 144 0 4 12 17 27 28 16 11 26 22 23 24 -15 11 -229 117
-249 123 l-24 7 5 -146z m132 59 c85 -43 95 -51 80 -62 -9 -7 -21 -14 -26 -15
-8 -3 40 -82 198 -326 1 -2 13 4 27 13 l25 16 7 -111 c4 -61 5 -113 2 -116 -5
-5 -207 93 -207 101 0 2 11 10 24 17 l25 13 -45 70 c-25 39 -72 112 -105 164
-59 91 -61 93 -80 75 -10 -9 -21 -15 -23 -13 -9 10 -17 231 -9 228 5 -2 53
-26 107 -54z"/>
<path d="M192 1008 c-17 -17 -17 -559 0 -576 9 -9 69 -12 210 -12 l198 0 0
-58 0 -58 -100 4 -100 4 0 -26 0 -26 310 0 310 0 0 26 0 26 -100 -4 -100 -3 0
58 0 57 200 0 c187 0 200 1 210 19 6 12 10 121 10 285 0 227 -2 267 -16 280
-14 14 -74 16 -518 16 -377 0 -505 -3 -514 -12z m1016 -291 l-3 -272 -500 0
-500 0 -3 250 c-1 138 0 260 3 273 5 19 11 22 53 20 l47 -1 -45 -7 c-25 -4
173 -7 440 -7 267 1 449 3 405 7 -92 6 -55 17 43 12 l62 -4 -2 -271z m-740
266 c-21 -2 -57 -2 -80 0 -24 2 -7 4 37 4 44 0 63 -2 43 -4z m139 0 c-20 -2
-52 -2 -70 0 -17 2 0 4 38 4 39 0 53 -2 32 -4z m173 -633 l0 -50 -75 0 -75 0
0 43 c0 24 3 47 7 50 3 4 37 7 75 7 l68 0 0 -50z"/>
<path d="M227 933 c-8 -15 -5 -73 4 -73 5 0 9 18 9 40 0 38 -4 48 -13 33z"/>
<path d="M228 678 c4 -236 9 -243 11 -15 0 103 -2 187 -7 187 -4 0 -6 -78 -4
-172z"/>
<path d="M1780 1001 c-15 -29 -14 -553 2 -569 9 -9 69 -12 210 -12 l198 0 0
-58 0 -58 -100 4 -100 4 0 -26 0 -26 310 0 310 0 0 26 0 26 -100 -4 -100 -4 0
58 0 58 198 0 c141 0 201 3 210 12 17 17 17 559 0 576 -9 9 -138 12 -520 12
-491 0 -508 -1 -518 -19z m958 -10 c39 -1 61 -5 57 -11 -3 -5 -3 -10 2 -10 4
0 7 -116 6 -257 -2 -142 -3 -261 -3 -266 0 -4 -224 -6 -497 -5 l-498 3 -3 273
-2 272 42 -1 43 -2 -40 -7 c-22 -4 178 -7 445 -7 267 1 449 3 405 4 -49 3 -74
7 -66 12 8 5 21 7 30 6 9 -2 44 -4 79 -4z m-364 -607 c3 -9 6 -31 6 -50 l0
-34 -80 0 -80 0 0 34 c0 62 5 66 80 66 53 0 69 -4 74 -16z"/>
<path d="M1812 895 c0 -19 4 -35 9 -35 5 0 9 16 9 35 0 19 -4 35 -9 35 -5 0
-9 -16 -9 -35z"/>
<path d="M1814 821 c2 -44 16 -50 16 -8 0 21 -4 37 -9 37 -5 0 -8 -13 -7 -29z"/>
<path d="M1824 655 c0 -60 1 -84 3 -52 2 32 2 81 0 110 -2 29 -3 3 -3 -58z"/>
</g>
</svg>
